<?xml version="1.0" standalone="no"?><!DOCTYPE svg PUBLIC "-//W3C//DTD SVG 1.1//EN" "http://www.w3.org/Graphics/SVG/1.1/DTD/svg11.dtd"><svg xmlns="http://www.w3.org/2000/svg" version="1.1" width="1843.667" height="549.167" xmlns:xlink="http://www.w3.org/1999/xlink" xlink="http://www.w3.org/1999/xlink" style="position:relative;overflow:hidden;" viewBox="44.833 6 1843.667 549.167"><defs/><g><g width="40.514" height="0" transform="scale(1,1) translate(591.667,191.667)"><g transform="scale(1,1) translate(0,0)" fill="#545454" stroke="#545454" stroke-opacity="1"><path d="M 0 0 L 30.514 0" fill="none" stroke-width="1" stroke-dasharray="none"/><g><g stroke-dasharray="none"><path d="M30.514,-5L40.514,0L30.514,5z" stroke="none" fill-opacity="1"/></g></g></g></g><g width="158.111" height="79.056" transform="scale(1,1) translate(70.944,152.139)"><g stroke="#CFE9F7" stroke-opacity="1" stroke-width="1" stroke-dasharray="none" width="158.111" height="79.056" transform="scale(1,1) translate(0,0)" fill="#CFE9F7" fill-opacity="1"><rect width="158.111" height="79.056"/></g><g width="153.1110019683838" height="74.0555009841919" transform="scale(1,1) translate(2.5,2.5)"><text width="153.1110019683838" height="66.33300590515137" transform="scale(1,1) translate(0,3.8612475395202637)" xml:space="preserve"><tspan xml:space="preserve" text-rendering="optimizeSpeed" style="font-family: Arial, Helvetica Neue, Helvetica, sans-serif;" font-size="19.444444444444443" font-weight="normal" font-style="normal" text-decoration="none" fill="#333333" opacity="1" x="19.355" text-anchor="start" y="17.917" textLength="108.90248107910156">Feature/Use</tspan><tspan xml:space="preserve" text-rendering="optimizeSpeed" style="font-family: Arial, Helvetica Neue, Helvetica, sans-serif;" font-size="19.444444444444443" font-weight="normal" font-style="normal" text-decoration="none" fill="#333333" opacity="1" x="2.288" text-anchor="start" y="40.028" textLength="143.0353775024414">Case defined by</tspan><tspan xml:space="preserve" text-rendering="optimizeSpeed" style="font-family: Arial, Helvetica Neue, Helvetica, sans-serif;" font-size="19.444444444444443" font-weight="normal" font-style="normal" text-decoration="none" fill="#00B050" opacity="1" x="0.37" text-anchor="start" y="62.139" textLength="61.607357025146484">Design</tspan><tspan xml:space="preserve" text-rendering="optimizeSpeed" style="font-family: Arial, Helvetica Neue, Helvetica, sans-serif;" font-size="19.444444444444443" font-weight="normal" font-style="normal" text-decoration="none" fill="#333333" opacity="1" x="61.978" text-anchor="start" y="62.139" textLength="17.056781768798828"> +</tspan><tspan xml:space="preserve" text-rendering="optimizeSpeed" style="font-family: Arial, Helvetica Neue, Helvetica, sans-serif;" font-size="19.444444444444443" font-weight="normal" font-style="normal" text-decoration="none" fill="#0070C0" opacity="1" x="84.533" text-anchor="start" y="62.139" textLength="68.20780181884766">Product</tspan></text></g></g><g width="152.306" height="76.153" transform="scale(1,1) translate(257.181,153.59)"><g stroke="#CFE9F7" stroke-opacity="1" stroke-width="1" stroke-dasharray="none" width="152.306" height="76.153" transform="scale(1,1) translate(0,0)" fill="#CFE9F7" fill-opacity="1"><rect width="152.306" height="76.153"/></g><g width="147.3055009841919" height="71.15275049209595" transform="scale(1,1) translate(2.5,2.5)"><text width="147.3055009841919" height="66.33300590515137" transform="scale(1,1) translate(0,2.40987229347229)" xml:space="preserve"><tspan xml:space="preserve" text-rendering="optimizeSpeed" style="font-family: Arial, Helvetica Neue, Helvetica, sans-serif;" font-size="19.444444444444443" font-weight="normal" font-style="normal" text-decoration="none" fill="#333333" opacity="1" x="14.249" text-anchor="start" y="17.917" textLength="113.30921936035156">Reviewed by</tspan><tspan xml:space="preserve" text-rendering="optimizeSpeed" style="font-family: Arial, Helvetica Neue, Helvetica, sans-serif;" font-size="19.444444444444443" font-weight="normal" font-style="normal" text-decoration="none" fill="#00B050" opacity="1" x="0" text-anchor="start" y="40.028" textLength="61.607357025146484">Design</tspan><tspan xml:space="preserve" text-rendering="optimizeSpeed" style="font-family: Arial, Helvetica Neue, Helvetica, sans-serif;" font-size="19.444444444444443" font-weight="normal" font-style="normal" text-decoration="none" fill="#333333" opacity="1" x="61.607" text-anchor="start" y="40.028" textLength="5.498758792877197">,</tspan><tspan xml:space="preserve" text-rendering="optimizeSpeed" style="font-family: Arial, Helvetica Neue, Helvetica, sans-serif;" font-size="19.444444444444443" font-weight="normal" font-style="normal" text-decoration="none" fill="#0070C0" opacity="1" x="72.605" text-anchor="start" y="40.028" textLength="68.20780181884766">Product</tspan><tspan xml:space="preserve" text-rendering="optimizeSpeed" style="font-family: Arial, Helvetica Neue, Helvetica, sans-serif;" font-size="19.444444444444443" font-weight="normal" font-style="normal" text-decoration="none" fill="#333333" opacity="1" x="140.813" text-anchor="start" y="40.028" textLength="5.498758792877197">,</tspan><tspan xml:space="preserve" text-rendering="optimizeSpeed" style="font-family: Arial, Helvetica Neue, Helvetica, sans-serif;" font-size="19.444444444444443" font-weight="normal" font-style="normal" text-decoration="none" fill="#333333" opacity="1" x="1.575" text-anchor="start" y="62.139" textLength="33.021544456481934">and</tspan><tspan xml:space="preserve" text-rendering="optimizeSpeed" style="font-family: Arial, Helvetica Neue, Helvetica, sans-serif;" font-size="19.444444444444443" font-weight="normal" font-style="normal" text-decoration="none" fill="#8064A2" opacity="1" x="40.095" text-anchor="start" y="62.139" textLength="105.6360855102539">Engineering</tspan></text></g></g><g width="150" height="75" transform="scale(1,1) translate(441.667,154.167)"><g stroke="#CFE9F7" stroke-opacity="1" stroke-width="1" stroke-dasharray="none" width="150" height="75" transform="scale(1,1) translate(0,0)" fill="#CFE9F7" fill-opacity="1"><rect width="150" height="75"/></g><g width="145" height="70" transform="scale(1,1) translate(2.5,2.5)"><text width="145" height="44.22200393676758" transform="scale(1,1) translate(0,12.888998031616211)" xml:space="preserve"><tspan xml:space="preserve" text-rendering="optimizeSpeed" style="font-family: Arial, Helvetica Neue, Helvetica, sans-serif;" font-size="19.444444444444443" font-weight="normal" font-style="normal" text-decoration="none" fill="#333333" opacity="1" x="13.111" text-anchor="start" y="17.917" textLength="113.28022766113281">Design Work</tspan><tspan xml:space="preserve" text-rendering="optimizeSpeed" style="font-family: Arial, Helvetica Neue, Helvetica, sans-serif;" font-size="19.444444444444443" font-weight="normal" font-style="normal" text-decoration="none" fill="#333333" opacity="1" x="38.937" text-anchor="start" y="40.028" textLength="67.12545013427734">Scoped</tspan></text></g></g><g width="152.306" height="76.153" transform="scale(1,1) translate(632.181,153.59)"><g stroke="#CFE9F7" stroke-opacity="1" stroke-width="1" stroke-dasharray="none" width="152.306" height="76.153" transform="scale(1,1) translate(0,0)" fill="#CFE9F7" fill-opacity="1"><rect width="152.306" height="76.153"/></g><g width="147.3055009841919" height="71.15275049209595" transform="scale(1,1) translate(2.5,2.5)"><text width="147.3055009841919" height="66.33300590515137" transform="scale(1,1) translate(0,2.40987229347229)" xml:space="preserve"><tspan xml:space="preserve" text-rendering="optimizeSpeed" style="font-family: Arial, Helvetica Neue, Helvetica, sans-serif;" font-size="19.444444444444443" font-weight="normal" font-style="normal" text-decoration="none" fill="#0070C0" opacity="1" x="0" text-anchor="start" y="17.917" textLength="68.20780181884766">Product</tspan><tspan xml:space="preserve" text-rendering="optimizeSpeed" style="font-family: Arial, Helvetica Neue, Helvetica, sans-serif;" font-size="19.444444444444443" font-weight="normal" font-style="normal" text-decoration="none" fill="#333333" opacity="1" x="68.208" text-anchor="start" y="17.917" textLength="5.498758792877197">,</tspan><tspan xml:space="preserve" text-rendering="optimizeSpeed" style="font-family: Arial, Helvetica Neue, Helvetica, sans-serif;" font-size="19.444444444444443" font-weight="normal" font-style="normal" text-decoration="none" fill="#00B050" opacity="1" x="79.205" text-anchor="start" y="17.917" textLength="61.607357025146484">Design</tspan><tspan xml:space="preserve" text-rendering="optimizeSpeed" style="font-family: Arial, Helvetica Neue, Helvetica, sans-serif;" font-size="19.444444444444443" font-weight="normal" font-style="normal" text-decoration="none" fill="#333333" opacity="1" x="140.813" text-anchor="start" y="17.917" textLength="5.498758792877197">,</tspan><tspan xml:space="preserve" text-rendering="optimizeSpeed" style="font-family: Arial, Helvetica Neue, Helvetica, sans-serif;" font-size="19.444444444444443" font-weight="normal" font-style="normal" text-decoration="none" fill="#333333" opacity="1" x="0" text-anchor="start" y="40.028" textLength="33.021544456481934">and</tspan><tspan xml:space="preserve" text-rendering="optimizeSpeed" style="font-family: Arial, Helvetica Neue, Helvetica, sans-serif;" font-size="19.444444444444443" font-weight="normal" font-style="normal" text-decoration="none" fill="#8064A2" opacity="1" x="38.52" text-anchor="start" y="40.028" textLength="105.6360855102539">Engineering</tspan><tspan xml:space="preserve" text-rendering="optimizeSpeed" style="font-family: Arial, Helvetica Neue, Helvetica, sans-serif;" font-size="19.444444444444443" font-weight="normal" font-style="normal" text-decoration="none" fill="#333333" opacity="1" x="45.594" text-anchor="start" y="62.139" textLength="56.11826467514038">Scope</tspan></text></g></g><g width="150" height="75" transform="scale(1,1) translate(75,262.5)"><g stroke="#CFE9F7" stroke-opacity="1" stroke-width="1" stroke-dasharray="none" width="150" height="75" transform="scale(1,1) translate(0,0)" fill="#CFE9F7" fill-opacity="1"><rect width="150" height="75"/></g><g width="145" height="70" transform="scale(1,1) translate(2.5,2.5)"><text width="145" height="66.33300590515137" transform="scale(1,1) translate(0,1.8334970474243164)" xml:space="preserve"><tspan xml:space="preserve" text-rendering="optimizeSpeed" style="font-family: Arial, Helvetica Neue, Helvetica, sans-serif;" font-size="19.444444444444443" font-weight="normal" font-style="normal" text-decoration="none" fill="#333333" opacity="1" x="13.086" text-anchor="start" y="17.917" textLength="113.32854461669922">See Release</tspan><tspan xml:space="preserve" text-rendering="optimizeSpeed" style="font-family: Arial, Helvetica Neue, Helvetica, sans-serif;" font-size="19.444444444444443" font-weight="normal" font-style="normal" text-decoration="none" fill="#333333" opacity="1" x="31.235" text-anchor="start" y="40.028" textLength="77.03093719482422">Planning</tspan><tspan xml:space="preserve" text-rendering="optimizeSpeed" style="font-family: Arial, Helvetica Neue, Helvetica, sans-serif;" font-size="19.444444444444443" font-weight="normal" font-style="normal" text-decoration="none" fill="#333333" opacity="1" x="31.815" text-anchor="start" y="62.139" textLength="81.37004089355469">Workflow</tspan></text></g></g><g width="155.271" height="77.635" transform="scale(1,1) translate(864.031,152.849)"><g stroke="#CFE9F7" stroke-opacity="1" stroke-width="1" stroke-dasharray="none" width="155.271" height="77.635" transform="scale(1,1) translate(0,0)" fill="#CFE9F7" fill-opacity="1"><rect width="155.271" height="77.635"/></g><g width="150.27075147628784" height="72.63537573814392" transform="scale(1,1) translate(2.5,2.5)"><text width="150.27075147628784" height="66.33300590515137" transform="scale(1,1) translate(0,3.151184916496277)" xml:space="preserve"><tspan xml:space="preserve" text-rendering="optimizeSpeed" style="font-family: Arial, Helvetica Neue, Helvetica, sans-serif;" font-size="19.444444444444443" font-weight="normal" font-style="normal" text-decoration="none" fill="#333333" opacity="1" x="3.762" text-anchor="start" y="17.917" textLength="35.215248107910156">See</tspan><tspan xml:space="preserve" text-rendering="optimizeSpeed" style="font-family: Arial, Helvetica Neue, Helvetica, sans-serif;" font-size="19.444444444444443" font-weight="normal" font-style="normal" text-decoration="none" fill="#8064A2" opacity="1" x="44.476" text-anchor="start" y="17.917" textLength="105.6360855102539">Engineering</tspan><tspan xml:space="preserve" text-rendering="optimizeSpeed" style="font-family: Arial, Helvetica Neue, Helvetica, sans-serif;" font-size="19.444444444444443" font-weight="normal" font-style="normal" text-decoration="none" fill="#333333" opacity="1" x="0" text-anchor="start" y="40.028" textLength="146.32109594345093">Feature Release</tspan><tspan xml:space="preserve" text-rendering="optimizeSpeed" style="font-family: Arial, Helvetica Neue, Helvetica, sans-serif;" font-size="19.444444444444443" font-weight="normal" font-style="normal" text-decoration="none" fill="#333333" opacity="1" x="34.45" text-anchor="start" y="62.139" textLength="81.37002563476562">Workflow</tspan></text></g></g><g width="0" height="31.306" transform="scale(1,1) translate(150,231.194)"><g transform="scale(1,1) translate(0,0)" fill="#545454" stroke="#545454" stroke-opacity="1"><path d="M 0 0 L 0 21.306" fill="none" stroke-width="1" stroke-dasharray="none"/><g><g stroke-dasharray="none"><path d="M5,21.306L0,31.306L-5,21.306z" stroke="none" fill-opacity="1"/></g></g></g></g><g width="28.125" height="0" transform="scale(1,1) translate(229.056,191.667)"><g transform="scale(1,1) translate(0,0)" fill="#545454" stroke="#545454" stroke-opacity="1"><path d="M 0 0 L 18.125 0" fill="none" stroke-width="1" stroke-dasharray="none"/><g><g stroke-dasharray="none"><path d="M18.125,-5L28.125,0L18.125,5z" stroke="none" fill-opacity="1"/></g></g></g></g><g width="32.181" height="0" transform="scale(1,1) translate(409.486,191.667)"><g transform="scale(1,1) translate(0,0)" fill="#545454" stroke="#545454" stroke-opacity="1"><path d="M 0 0 L 22.181 0" fill="none" stroke-width="1" stroke-dasharray="none"/><g><g stroke-dasharray="none"><path d="M22.181,-5L32.181,0L22.181,5z" stroke="none" fill-opacity="1"/></g></g></g></g><g width="79.545" height="0" transform="scale(1,1) translate(784.486,191.667)"><g transform="scale(1,1) translate(0,0)" fill="#545454" stroke="#545454" stroke-opacity="1"><path d="M 0 0 L 69.545 0" fill="none" stroke-width="1" stroke-dasharray="none"/><g><g stroke-dasharray="none"><path d="M69.545,-5L79.545,0L69.545,5z" stroke="none" fill-opacity="1"/></g></g></g></g><g width="0" height="33.333" transform="scale(1,1) translate(516.667,229.167)"><g transform="scale(1,1) translate(0,0)" fill="#545454" stroke="#545454" stroke-opacity="1"><path d="M 0 0 L 0 23.333" fill="none" stroke-width="1" stroke-dasharray="none"/><g><g stroke-dasharray="none"><path d="M5,23.333L0,33.333L-5,23.333z" stroke="none" fill-opacity="1"/></g></g></g></g><g width="812.645" height="31.421" transform="scale(1,1) translate(473,18)"><g stroke="#545454" stroke-opacity="1" stroke-width="0" stroke-dasharray="none" width="812.645" height="31.421" transform="scale(1,1) translate(0,0)" fill="none"><rect width="812.645" height="31.421"/></g><g width="812.6448974609375" height="31.420896530151367" transform="scale(1,1) translate(0,0)"><text width="812.6448974609375" height="31.420896530151367" transform="scale(1,1) translate(0,0)" xml:space="preserve"><tspan xml:space="preserve" text-rendering="optimizeSpeed" style="font-family: Arial, Helvetica Neue, Helvetica, sans-serif;" font-size="27.77777777777778" font-weight="bold" font-style="normal" text-decoration="none" fill="#0070C0" opacity="1" x="0" text-anchor="start" y="25.461" textLength="812.6448974609375">Product, Design, and Engineering Feature Delivery Workflow</tspan></text></g></g><g width="105.667" height="28" transform="scale(1,1) translate(330.5,102.667)"><g stroke="#545454" stroke-opacity="1" stroke-width="0" stroke-dasharray="none" width="105.667" height="28" transform="scale(1,1) translate(0,0)" fill="none"><rect width="105.667" height="28"/></g><g width="105.66666666666666" height="28" transform="scale(1,1) translate(0,0)"><text width="105.66666666666666" height="27.929685592651367" transform="scale(1,1) translate(0,0.035157203674316406)" xml:space="preserve"><tspan xml:space="preserve" text-rendering="optimizeSpeed" style="font-family: Arial, Helvetica Neue, Helvetica, sans-serif;" font-size="25" font-weight="bold" font-style="normal" text-decoration="none" fill="#0070C0" opacity="1" x="0" text-anchor="start" y="22.632" textLength="105.55419158935547">Planning</tspan></text></g></g><g width="150" height="75" transform="scale(1,1) translate(441.667,262.5)"><g stroke="#CFE9F7" stroke-opacity="1" stroke-width="1" stroke-dasharray="none" width="150" height="75" transform="scale(1,1) translate(0,0)" fill="#CFE9F7" fill-opacity="1"><rect width="150" height="75"/></g><g width="145" height="70" transform="scale(1,1) translate(2.5,2.5)"><text width="145" height="22.11100196838379" transform="scale(1,1) translate(0,23.944499015808105)" xml:space="preserve"><tspan xml:space="preserve" text-rendering="optimizeSpeed" style="font-family: Arial, Helvetica Neue, Helvetica, sans-serif;" font-size="19.444444444444443" font-weight="normal" font-style="normal" text-decoration="none" fill="#333333" opacity="1" x="13.096" text-anchor="start" y="17.917" textLength="118.80797576904297">Design Sprint</tspan></text></g></g><g width="119.333" height="28" transform="scale(1,1) translate(1073.667,102.667)"><g stroke="#545454" stroke-opacity="1" stroke-width="0" stroke-dasharray="none" width="119.333" height="28" transform="scale(1,1) translate(0,0)" fill="none"><rect width="119.333" height="28"/></g><g width="119.47020721435547" height="28" transform="scale(1,1) translate(0,0)"><text width="119.47020721435547" height="27.929685592651367" transform="scale(1,1) translate(0,0.035157203674316406)" xml:space="preserve"><tspan xml:space="preserve" text-rendering="optimizeSpeed" style="font-family: Arial, Helvetica Neue, Helvetica, sans-serif;" font-size="25" font-weight="bold" font-style="normal" text-decoration="none" fill="#0070C0" opacity="1" x="0" text-anchor="start" y="22.632" textLength="119.47020721435547">Execution</tspan></text></g></g><g width="161.167" height="28" transform="scale(1,1) translate(1577.833,102.667)"><g stroke="#545454" stroke-opacity="1" stroke-width="0" stroke-dasharray="none" width="161.167" height="28" transform="scale(1,1) translate(0,0)" fill="none"><rect width="161.167" height="28"/></g><g width="161.16943359375" height="28" transform="scale(1,1) translate(0,0)"><text width="161.16943359375" height="27.929685592651367" transform="scale(1,1) translate(0,0.035157203674316406)" xml:space="preserve"><tspan xml:space="preserve" text-rendering="optimizeSpeed" style="font-family: Arial, Helvetica Neue, Helvetica, sans-serif;" font-size="25" font-weight="bold" font-style="normal" text-decoration="none" fill="#0070C0" opacity="1" x="0" text-anchor="start" y="22.632" textLength="161.16943359375">Measurement</tspan></text></g></g><g width="152" height="76" transform="scale(1,1) translate(1057.333,153.667)"><g stroke="#CFE9F7" stroke-opacity="1" stroke-width="1" stroke-dasharray="none" width="152" height="76" transform="scale(1,1) translate(0,0)" fill="#CFE9F7" fill-opacity="1"><rect width="152" height="76"/></g><g width="147" height="71" transform="scale(1,1) translate(2.5,2.5)"><text width="147" height="44.22200393676758" transform="scale(1,1) translate(0,13.388998031616211)" xml:space="preserve"><tspan xml:space="preserve" text-rendering="optimizeSpeed" style="font-family: Arial, Helvetica Neue, Helvetica, sans-serif;" font-size="19.444444444444443" font-weight="normal" font-style="normal" text-decoration="none" fill="#333333" opacity="1" x="27.857" text-anchor="start" y="17.917" textLength="85.78643798828125">Customer</tspan><tspan xml:space="preserve" text-rendering="optimizeSpeed" style="font-family: Arial, Helvetica Neue, Helvetica, sans-serif;" font-size="19.444444444444443" font-weight="normal" font-style="normal" text-decoration="none" fill="#333333" opacity="1" x="21.784" text-anchor="start" y="40.028" textLength="103.4327163696289">Onboarding</tspan></text></g></g><g width="38.031" height="0" transform="scale(1,1) translate(1019.302,191.667)"><g transform="scale(1,1) translate(0,0)" fill="#545454" stroke="#545454" stroke-opacity="1"><path d="M 0 0 L 28.031 0" fill="none" stroke-width="1" stroke-dasharray="none"/><g><g stroke-dasharray="none"><path d="M28.031,-5L38.031,0L28.031,5z" stroke="none" fill-opacity="1"/></g></g></g></g><g width="152" height="76" transform="scale(1,1) translate(1499,153.667)"><g stroke="#CFE9F7" stroke-opacity="1" stroke-width="1" stroke-dasharray="none" width="152" height="76" transform="scale(1,1) translate(0,0)" fill="#CFE9F7" fill-opacity="1"><rect width="152" height="76"/></g><g width="147" height="71" transform="scale(1,1) translate(2.5,2.5)"><text width="147" height="44.22200393676758" transform="scale(1,1) translate(0,13.388998031616211)" xml:space="preserve"><tspan xml:space="preserve" text-rendering="optimizeSpeed" style="font-family: Arial, Helvetica Neue, Helvetica, sans-serif;" font-size="19.444444444444443" font-weight="normal" font-style="normal" text-decoration="none" fill="#333333" opacity="1" x="27.857" text-anchor="start" y="17.917" textLength="85.78643798828125">Customer</tspan><tspan xml:space="preserve" text-rendering="optimizeSpeed" style="font-family: Arial, Helvetica Neue, Helvetica, sans-serif;" font-size="19.444444444444443" font-weight="normal" font-style="normal" text-decoration="none" fill="#333333" opacity="1" x="30.041" text-anchor="start" y="40.028" textLength="86.91710662841797">Feedback</tspan></text></g></g><g width="152" height="76" transform="scale(1,1) translate(1682.333,153.667)"><g stroke="#CFE9F7" stroke-opacity="1" stroke-width="1" stroke-dasharray="none" width="152" height="76" transform="scale(1,1) translate(0,0)" fill="#CFE9F7" fill-opacity="1"><rect width="152" height="76"/></g><g width="147" height="71" transform="scale(1,1) translate(2.5,2.5)"><text width="147" height="44.22200393676758" transform="scale(1,1) translate(0,13.388998031616211)" xml:space="preserve"><tspan xml:space="preserve" text-rendering="optimizeSpeed" style="font-family: Arial, Helvetica Neue, Helvetica, sans-serif;" font-size="19.444444444444443" font-weight="normal" font-style="normal" text-decoration="none" fill="#333333" opacity="1" x="4.215" text-anchor="start" y="17.917" textLength="138.57064819335938">Metrics/Analytic</tspan><tspan xml:space="preserve" text-rendering="optimizeSpeed" style="font-family: Arial, Helvetica Neue, Helvetica, sans-serif;" font-size="19.444444444444443" font-weight="normal" font-style="normal" text-decoration="none" fill="#333333" opacity="1" x="68.552" text-anchor="start" y="40.028" textLength="9.895843505859375">s</tspan></text></g></g><g width="152" height="76" transform="scale(1,1) translate(1249,153.667)"><g stroke="#CFE9F7" stroke-opacity="1" stroke-width="1" stroke-dasharray="none" width="152" height="76" transform="scale(1,1) translate(0,0)" fill="#CFE9F7" fill-opacity="1"><rect width="152" height="76"/></g><g width="147" height="71" transform="scale(1,1) translate(2.5,2.5)"><text width="147" height="66.33300590515137" transform="scale(1,1) translate(0,2.3334970474243164)" xml:space="preserve"><tspan xml:space="preserve" text-rendering="optimizeSpeed" style="font-family: Arial, Helvetica Neue, Helvetica, sans-serif;" font-size="19.444444444444443" font-weight="normal" font-style="normal" text-decoration="none" fill="#333333" opacity="1" x="0.344" text-anchor="start" y="17.917" textLength="140.81268310546875">How long it took</tspan><tspan xml:space="preserve" text-rendering="optimizeSpeed" style="font-family: Arial, Helvetica Neue, Helvetica, sans-serif;" font-size="19.444444444444443" font-weight="normal" font-style="normal" text-decoration="none" fill="#333333" opacity="1" x="16.836" text-anchor="start" y="40.028" textLength="107.82978820800781">to get things</tspan><tspan xml:space="preserve" text-rendering="optimizeSpeed" style="font-family: Arial, Helvetica Neue, Helvetica, sans-serif;" font-size="19.444444444444443" font-weight="normal" font-style="normal" text-decoration="none" fill="#333333" opacity="1" x="45.982" text-anchor="start" y="62.139" textLength="55.035919189453125">done?</tspan></text></g></g><g width="152" height="76" transform="scale(1,1) translate(1499,253.667)"><g stroke="#CFE9F7" stroke-opacity="1" stroke-width="1" stroke-dasharray="none" width="152" height="76" transform="scale(1,1) translate(0,0)" fill="#CFE9F7" fill-opacity="1"><rect width="152" height="76"/></g><g width="147" height="71" transform="scale(1,1) translate(2.5,2.5)"><text width="147" height="22.11100196838379" transform="scale(1,1) translate(0,24.444499015808105)" xml:space="preserve"><tspan xml:space="preserve" text-rendering="optimizeSpeed" style="font-family: Arial, Helvetica Neue, Helvetica, sans-serif;" font-size="19.444444444444443" font-weight="normal" font-style="normal" text-decoration="none" fill="#333333" opacity="1" x="50.944" text-anchor="start" y="17.917" textLength="45.111083984375">Bugs</tspan></text></g></g><g width="152" height="76" transform="scale(1,1) translate(1499,353.667)"><g stroke="#CFE9F7" stroke-opacity="1" stroke-width="1" stroke-dasharray="none" width="152" height="76" transform="scale(1,1) translate(0,0)" fill="#CFE9F7" fill-opacity="1"><rect width="152" height="76"/></g><g width="147" height="71" transform="scale(1,1) translate(2.5,2.5)"><text width="147" height="44.22200393676758" transform="scale(1,1) translate(0,13.388998031616211)" xml:space="preserve"><tspan xml:space="preserve" text-rendering="optimizeSpeed" style="font-family: Arial, Helvetica Neue, Helvetica, sans-serif;" font-size="19.444444444444443" font-weight="normal" font-style="normal" text-decoration="none" fill="#333333" opacity="1" x="9.684" text-anchor="start" y="17.917" textLength="122.13236236572266">Enhancement</tspan><tspan xml:space="preserve" text-rendering="optimizeSpeed" style="font-family: Arial, Helvetica Neue, Helvetica, sans-serif;" font-size="19.444444444444443" font-weight="normal" font-style="normal" text-decoration="none" fill="#333333" opacity="1" x="31.694" text-anchor="start" y="40.028" textLength="83.612060546875">Requests</tspan></text></g></g><g width="152" height="76" transform="scale(1,1) translate(1499,453.667)"><g stroke="#CFE9F7" stroke-opacity="1" stroke-width="1" stroke-dasharray="none" width="152" height="76" transform="scale(1,1) translate(0,0)" fill="#CFE9F7" fill-opacity="1"><rect width="152" height="76"/></g><g width="147" height="71" transform="scale(1,1) translate(2.5,2.5)"><text width="147" height="22.11100196838379" transform="scale(1,1) translate(0,24.444499015808105)" xml:space="preserve"><tspan xml:space="preserve" text-rendering="optimizeSpeed" style="font-family: Arial, Helvetica Neue, Helvetica, sans-serif;" font-size="19.444444444444443" font-weight="normal" font-style="normal" text-decoration="none" fill="#333333" opacity="1" x="4.756" text-anchor="start" y="17.917" textLength="137.48829650878906">Usability Issues</tspan></text></g></g><g width="39.667" height="0" transform="scale(1,1) translate(1209.333,191.667)"><g transform="scale(1,1) translate(0,0)" fill="#545454" stroke="#545454" stroke-opacity="1"><path d="M 0 0 L 29.667 0" fill="none" stroke-width="1" stroke-dasharray="none"/><g><g stroke-dasharray="none"><path d="M29.667,-5L39.667,0L29.667,5z" stroke="none" fill-opacity="1"/></g></g></g></g><g width="98" height="0" transform="scale(1,1) translate(1401,191.667)"><g transform="scale(1,1) translate(0,0)" fill="#545454" stroke="#545454" stroke-opacity="1"><path d="M 0 0 L 88 0" fill="none" stroke-width="1" stroke-dasharray="none"/><g><g stroke-dasharray="none"><path d="M88,-5L98,0L88,5z" stroke="none" fill-opacity="1"/></g></g></g></g><g width="32.333" height="0" transform="scale(1,1) translate(1650,191.667)"><g transform="scale(1,1) translate(0,0)" fill="#545454" stroke="#545454" stroke-opacity="1"><path d="M 0 0 L 22.333 0" fill="none" stroke-width="1" stroke-dasharray="none"/><g><g stroke-dasharray="none"><path d="M22.333,-5L32.333,0L22.333,5z" stroke="none" fill-opacity="1"/></g></g></g></g><g width="0" height="24" transform="scale(1,1) translate(1575,229.667)"><g transform="scale(1,1) translate(0,0)" fill="#545454" stroke="#545454" stroke-opacity="1"><path d="M 0 0 L 0 14" fill="none" stroke-width="1" stroke-dasharray="none"/><g><g stroke-dasharray="none"><path d="M5,14L0,24L-5,14z" stroke="none" fill-opacity="1"/></g></g></g></g><g width="0" height="24" transform="scale(1,1) translate(1575,329.667)"><g transform="scale(1,1) translate(0,0)" fill="#545454" stroke="#545454" stroke-opacity="1"><path d="M 0 0 L 0 14" fill="none" stroke-width="1" stroke-dasharray="none"/><g><g stroke-dasharray="none"><path d="M5,14L0,24L-5,14z" stroke="none" fill-opacity="1"/></g></g></g></g><g width="0" height="24" transform="scale(1,1) translate(1575,429.667)"><g transform="scale(1,1) translate(0,0)" fill="#545454" stroke="#545454" stroke-opacity="1"><path d="M 0 0 L 0 14" fill="none" stroke-width="1" stroke-dasharray="none"/><g><g stroke-dasharray="none"><path d="M5,14L0,24L-5,14z" stroke="none" fill-opacity="1"/></g></g></g></g><g width="750" height="225" transform="scale(1,1) translate(58.333,137.5)"><g stroke="#CFE9F7" stroke-opacity="1" stroke-width="3" stroke-dasharray="none" width="750" height="225" transform="scale(1,1) translate(0,0)" fill="none"><rect width="750" height="225"/></g></g><g width="608.333" height="225" transform="scale(1,1) translate(825,137.5)"><g stroke="#CFE9F7" stroke-opacity="1" stroke-width="3" stroke-dasharray="none" width="608.333" height="225" transform="scale(1,1) translate(0,0)" fill="none"><rect width="608.333" height="225"/></g></g><g width="420.833" height="404.167" transform="scale(1,1) translate(1454.167,137.5)"><g stroke="#CFE9F7" stroke-opacity="1" stroke-width="3" stroke-dasharray="none" width="420.833" height="404.167" transform="scale(1,1) translate(0,0)" fill="none"><rect width="420.833" height="404.167"/></g></g></g></svg>