<?xml version="1.0" standalone="no"?><!DOCTYPE svg PUBLIC "-//W3C//DTD SVG 1.1//EN" "http://www.w3.org/Graphics/SVG/1.1/DTD/svg11.dtd"><svg xmlns="http://www.w3.org/2000/svg" version="1.1" width="564.667" height="886.333" xmlns:xlink="http://www.w3.org/1999/xlink" xlink="http://www.w3.org/1999/xlink" style="position:relative;overflow:hidden;" viewBox="23.833 6 564.667 886.333"><defs/><g><g width="93.667" height="41.833" transform="scale(1,1) translate(161.667,366.5)"><g stroke="#B3D7EE" stroke-opacity="1" stroke-width="1" stroke-dasharray="none" width="93.667" height="41.833" transform="scale(1,1) translate(0,0)" fill="none"><rect width="93.667" height="41.833"/></g><g width="88.66666666666666" height="36.83333333333333" transform="scale(1,1) translate(2.5,2.5)"><text width="88.66666666666666" height="18.61979103088379" transform="scale(1,1) translate(0,9.10677115122477)" xml:space="preserve"><tspan xml:space="preserve" text-rendering="optimizeSpeed" style="font-family: Arial, Helvetica Neue, Helvetica, sans-serif;" font-size="16.666666666666668" font-weight="normal" font-style="normal" text-decoration="none" fill="#FFC000" opacity="1" x="8.201" text-anchor="start" y="15.088" textLength="72.265625">Roadmap</tspan></text></g></g><g width="0" height="39" transform="scale(1,1) translate(208.333,432.833)"><g fill="#545454" stroke="#545454" stroke-opacity="1" transform="scale(1,1) translate(0,0)"><path fill="none" stroke-width="1" stroke-dasharray="none" d="M0,0 L0,0 M0,0 L0,0 M0,39 L0,39 M0,0 L0,0"/><g><g stroke-dasharray="none"><path d="M0,0L-10,0L-10,-10L0,-10z" stroke-width="0" fill="none"/></g></g></g></g><g width="79" height="38" transform="scale(1,1) translate(168.833,432.833)"><g stroke="#B3D7EE" stroke-opacity="1" stroke-width="1" stroke-dasharray="none" width="79" height="38" transform="scale(1,1) translate(0,0)" fill="none"><rect width="79" height="38"/></g><g width="74" height="33" transform="scale(1,1) translate(2.5,2.5)"><text width="74" height="18.61979103088379" transform="scale(1,1) translate(0,7.1901044845581055)" xml:space="preserve"><tspan xml:space="preserve" text-rendering="optimizeSpeed" style="font-family: Arial, Helvetica Neue, Helvetica, sans-serif;" font-size="16.666666666666668" font-weight="normal" font-style="normal" text-decoration="none" fill="#00B050" opacity="1" x="20.789" text-anchor="start" y="15.088" textLength="32.421875">Epic</tspan></text></g></g><g width="104" height="54" transform="scale(1,1) translate(214.833,510.5)"><g stroke="#B3D7EE" stroke-opacity="1" stroke-width="1" stroke-dasharray="none" width="104" height="54" transform="scale(1,1) translate(0,0)" fill="none"><rect width="104" height="54"/></g><g width="99" height="49" transform="scale(1,1) translate(2.5,2.5)"><text width="99" height="18.61979103088379" transform="scale(1,1) translate(0,15.190104484558105)" xml:space="preserve"><tspan xml:space="preserve" text-rendering="optimizeSpeed" style="font-family: Arial, Helvetica Neue, Helvetica, sans-serif;" font-size="16.666666666666668" font-weight="normal" font-style="normal" text-decoration="none" fill="#0070C0" opacity="1" x="30.05" text-anchor="start" y="15.088" textLength="38.89973831176758">Story</tspan></text></g></g><g width="89.667" height="48" transform="scale(1,1) translate(380.167,513.5)"><g stroke="#B3D7EE" stroke-opacity="1" stroke-width="1" stroke-dasharray="none" width="89.667" height="48" transform="scale(1,1) translate(0,0)" fill="none"><rect width="89.667" height="48"/></g><g width="84.66666666666666" height="43" transform="scale(1,1) translate(2.5,2.5)"><text width="84.66666666666666" height="18.61979103088379" transform="scale(1,1) translate(0,12.190104484558105)" xml:space="preserve"><tspan xml:space="preserve" text-rendering="optimizeSpeed" style="font-family: Arial, Helvetica Neue, Helvetica, sans-serif;" font-size="16.666666666666668" font-weight="normal" font-style="normal" text-decoration="none" fill="#C0504D" opacity="1" x="6.664" text-anchor="start" y="15.088" textLength="71.337890625">Iteration *</tspan></text></g></g><g width="58.333" height="39.667" transform="scale(1,1) translate(208.333,470.833)"><g transform="scale(1,1) translate(0,0)" fill="#545454" stroke="#545454" stroke-opacity="1"><path d="M 2.254 9.653 A 29.167 25 0 0 0 29.167 25 A 29.167 14.667 0 0 1 53.317 31.441" fill="none" stroke-width="1" stroke-dasharray="none"/><g><g stroke-dasharray="none"><path d="M-2.615,10.791L-0.02,-0.085L7.123,8.516z" stroke="none" fill-opacity="1"/></g><g stroke-dasharray="none"><path d="M57.586,28.838L58.523,39.979L49.048,34.044z" stroke="none" fill-opacity="1"/></g></g></g></g><g width="58.333" height="39.667" transform="scale(1,1) translate(266.833,470.833)"><g transform="scale(1,1) translate(0,0)" fill="#545454" stroke="#545454" stroke-opacity="1"><path d="M 2.254 30.014 A 29.167 25 0 0 1 29.167 14.667 A 29.167 14.667 0 0 0 53.317 8.226" fill="none" stroke-width="1" stroke-dasharray="none"/><g><g stroke-dasharray="none"><path d="M7.123,31.151L-0.02,39.752L-2.615,28.876z" stroke="none" fill-opacity="1"/></g><g stroke-dasharray="none"><path d="M49.048,5.623L58.523,-0.312L57.586,10.829z" stroke="none" fill-opacity="1"/></g></g></g></g><g width="0.167" height="24.5" transform="scale(1,1) translate(208.333,408.333)"><g transform="scale(1,1) translate(0,0)" fill="#545454" stroke="#545454" stroke-opacity="1"><path d="M 0.068 14.5 L 0.099 10" fill="none" stroke-width="1" stroke-dasharray="none"/><g><g stroke-dasharray="none"><path d="M5.068,14.534L0,24.5L-4.932,14.466z" stroke="none" fill-opacity="1"/></g><g stroke-dasharray="none"><path d="M-4.901,9.966L0.167,0L5.099,10.034z" stroke="none" fill-opacity="1"/></g></g></g></g><g width="61.333" height="0" transform="scale(1,1) translate(318.833,537.5)"><g transform="scale(1,1) translate(0,0)" fill="#545454" stroke="#545454" stroke-opacity="1"><path d="M 10 0 L 51.333 0" fill="none" stroke-width="1" stroke-dasharray="none"/><g><g stroke-dasharray="none"><path d="M10,5L0,0L10,-5z" stroke="none" fill-opacity="1"/></g><g stroke-dasharray="none"><path d="M51.333,-5L61.333,0L51.333,5z" stroke="none" fill-opacity="1"/></g></g></g></g><g width="83.5" height="37.5" transform="scale(1,1) translate(283.333,433.333)"><g stroke="#B3D7EE" stroke-opacity="1" stroke-width="1" stroke-dasharray="none" width="83.5" height="37.5" transform="scale(1,1) translate(0,0)" fill="none"><rect width="83.5" height="37.5"/></g><g width="78.5" height="32.5" transform="scale(1,1) translate(2.5,2.5)"><text width="78.5" height="18.61979103088379" transform="scale(1,1) translate(0,6.9401044845581055)" xml:space="preserve"><tspan xml:space="preserve" text-rendering="optimizeSpeed" style="font-family: Arial, Helvetica Neue, Helvetica, sans-serif;" font-size="16.666666666666668" font-weight="normal" font-style="normal" text-decoration="none" fill="#FF0000" opacity="1" x="4.513" text-anchor="start" y="15.088" textLength="69.47428131103516">Project **</tspan></text></g></g><g width="466.833" height="241.667" transform="scale(1,1) translate(66.667,345.833)"><g transform="scale(1,1) translate(0,0)" stroke="#B3D7EE" fill="none" stroke-opacity="1"><path d="M0,48.333 a48.333,48.333 0 0,1 48.333,-48.333 l370.167,0 a48.333,48.333 0 0,1 48.333,48.333 l0,145 a48.333,48.333 0 0,1 -48.333,48.333 l-370.167,0 a48.333,48.333 0 0,1 -48.333,-48.333 z" stroke-width="3" stroke-dasharray="none"/></g></g><g width="526.667" height="28" transform="scale(1,1) translate(45,311)"><g stroke="#545454" stroke-opacity="1" stroke-width="0" stroke-dasharray="none" width="526.667" height="28" transform="scale(1,1) translate(0,0)" fill="none"><rect width="526.667" height="28"/></g><g width="526.6666666666666" height="28" transform="scale(1,1) translate(0,0)"><text width="526.6666666666666" height="27.929685592651367" transform="scale(1,1) translate(0,0.035157203674316406)" xml:space="preserve"><tspan xml:space="preserve" text-rendering="optimizeSpeed" style="font-family: Arial, Helvetica Neue, Helvetica, sans-serif;" font-size="25" font-weight="bold" font-style="normal" text-decoration="none" fill="#8064A2" opacity="1" x="0" text-anchor="start" y="22.632" textLength="526.513671875">Clubhouse.IO entity associative relationship</tspan></text></g></g><g width="537.667" height="168.833" transform="scale(1,1) translate(37.333,107.333)"><g transform="scale(1,1) translate(0,0)" stroke="#B3D7EE" fill="none" stroke-opacity="1"><path d="M0,33.767 a33.767,33.767 0 0,1 33.767,-33.767 l470.133,0 a33.767,33.767 0 0,1 33.767,33.767 l0,101.3 a33.767,33.767 0 0,1 -33.767,33.767 l-470.133,0 a33.767,33.767 0 0,1 -33.767,-33.767 z" stroke-width="3" stroke-dasharray="none"/></g></g><g width="218" height="28" transform="scale(1,1) translate(182.667,69.333)"><g stroke="#545454" stroke-opacity="1" stroke-width="0" stroke-dasharray="none" width="218" height="28" transform="scale(1,1) translate(0,0)" fill="none"><rect width="218" height="28"/></g><g width="218.16404724121094" height="28" transform="scale(1,1) translate(0,0)"><text width="218.16404724121094" height="27.929685592651367" transform="scale(1,1) translate(0,0.035157203674316406)" xml:space="preserve"><tspan xml:space="preserve" text-rendering="optimizeSpeed" style="font-family: Arial, Helvetica Neue, Helvetica, sans-serif;" font-size="25" font-weight="bold" font-style="normal" text-decoration="none" fill="#8064A2" opacity="1" x="0" text-anchor="start" y="22.632" textLength="218.16404724121094">Types of Releases</tspan></text></g></g><g width="133.333" height="62.5" transform="scale(1,1) translate(241.667,118.833)"><g stroke="#B3D7EE" stroke-opacity="1" stroke-width="1" stroke-dasharray="none" width="133.333" height="62.5" transform="scale(1,1) translate(0,0)" fill="none"><rect width="133.333" height="62.5"/></g><g width="128.33333333333331" height="57.5" transform="scale(1,1) translate(2.5,2.5)"><text width="128.33333333333331" height="18.61979103088379" transform="scale(1,1) translate(0,19.440104484558105)" xml:space="preserve"><tspan xml:space="preserve" text-rendering="optimizeSpeed" style="font-family: Arial, Helvetica Neue, Helvetica, sans-serif;" font-size="16.666666666666668" font-weight="normal" font-style="normal" text-decoration="none" fill="#333333" opacity="1" x="9.972" text-anchor="start" y="15.088" textLength="108.39029693603516">Back end Only</tspan></text></g></g><g width="133.333" height="62.5" transform="scale(1,1) translate(416.667,118.833)"><g stroke="#B3D7EE" stroke-opacity="1" stroke-width="1" stroke-dasharray="none" width="133.333" height="62.5" transform="scale(1,1) translate(0,0)" fill="none"><rect width="133.333" height="62.5"/></g><g width="128.33333333333331" height="57.5" transform="scale(1,1) translate(2.5,2.5)"><text width="128.33333333333331" height="37.23958206176758" transform="scale(1,1) translate(0,10.130208969116211)" xml:space="preserve"><tspan xml:space="preserve" text-rendering="optimizeSpeed" style="font-family: Arial, Helvetica Neue, Helvetica, sans-serif;" font-size="16.666666666666668" font-weight="normal" font-style="normal" text-decoration="none" fill="#333333" opacity="1" x="2.79" text-anchor="start" y="15.088" textLength="118.12336730957031">Front end+Back</tspan><tspan xml:space="preserve" text-rendering="optimizeSpeed" style="font-family: Arial, Helvetica Neue, Helvetica, sans-serif;" font-size="16.666666666666668" font-weight="normal" font-style="normal" text-decoration="none" fill="#333333" opacity="1" x="50.263" text-anchor="start" y="33.708" textLength="27.80762481689453">end</tspan></text></g></g><g width="75" height="39.667" transform="scale(1,1) translate(404.167,213.5)"><g stroke="#B3D7EE" stroke-opacity="1" stroke-width="1" stroke-dasharray="none" width="75" height="39.667" transform="scale(1,1) translate(0,0)" fill="none"><rect width="75" height="39.667"/></g><g width="70" height="34.666666666666664" transform="scale(1,1) translate(2.5,2.5)"><text width="70" height="15.128580093383789" transform="scale(1,1) translate(0,9.769043286641438)" xml:space="preserve"><tspan xml:space="preserve" text-rendering="optimizeSpeed" style="font-family: Arial, Helvetica Neue, Helvetica, sans-serif;" font-size="13.88888888888889" font-weight="normal" font-style="normal" text-decoration="none" fill="#333333" opacity="1" x="15.054" text-anchor="start" y="12.259" textLength="39.89105224609375">Mobile</tspan></text></g></g><g width="75" height="39.5" transform="scale(1,1) translate(487.5,213.667)"><g stroke="#B3D7EE" stroke-opacity="1" stroke-width="1" stroke-dasharray="none" width="75" height="39.5" transform="scale(1,1) translate(0,0)" fill="none"><rect width="75" height="39.5"/></g><g width="70" height="34.5" transform="scale(1,1) translate(2.5,2.5)"><text width="70" height="15.128580093383789" transform="scale(1,1) translate(0,9.685709953308105)" xml:space="preserve"><tspan xml:space="preserve" text-rendering="optimizeSpeed" style="font-family: Arial, Helvetica Neue, Helvetica, sans-serif;" font-size="13.88888888888889" font-weight="normal" font-style="normal" text-decoration="none" fill="#333333" opacity="1" x="21.078" text-anchor="start" y="12.259" textLength="27.84372901916504">Web</tspan></text></g></g><g width="41.667" height="32.167" transform="scale(1,1) translate(441.667,181.333)"><g transform="scale(1,1) translate(0,0)" fill="#545454" stroke="#545454" stroke-opacity="1"><path d="M 7.916 26.056 L 33.751 6.111" fill="none" stroke-width="1" stroke-dasharray="none"/><g><g stroke-dasharray="none"><path d="M10.971,30.014L0,32.167L4.86,22.098z" stroke="none" fill-opacity="1"/></g><g stroke-dasharray="none"><path d="M30.696,2.153L41.667,0L36.807,10.069z" stroke="none" fill-opacity="1"/></g></g></g></g><g width="41.667" height="32.333" transform="scale(1,1) translate(483.333,181.333)"><g transform="scale(1,1) translate(0,0)" fill="#545454" stroke="#545454" stroke-opacity="1"><path d="M 7.9 6.131 L 33.767 26.203" fill="none" stroke-width="1" stroke-dasharray="none"/><g><g stroke-dasharray="none"><path d="M4.835,10.081L0,0L10.966,2.18z" stroke="none" fill-opacity="1"/></g><g stroke-dasharray="none"><path d="M36.832,22.252L41.667,32.333L30.701,30.153z" stroke="none" fill-opacity="1"/></g></g></g></g><g width="133.333" height="62.5" transform="scale(1,1) translate(54.167,120)"><g stroke="#B3D7EE" stroke-opacity="1" stroke-width="1" stroke-dasharray="none" width="133.333" height="62.5" transform="scale(1,1) translate(0,0)" fill="none"><rect width="133.333" height="62.5"/></g><g width="128.33333333333331" height="57.5" transform="scale(1,1) translate(2.5,2.5)"><text width="128.33333333333331" height="18.61979103088379" transform="scale(1,1) translate(0,19.440104484558105)" xml:space="preserve"><tspan xml:space="preserve" text-rendering="optimizeSpeed" style="font-family: Arial, Helvetica Neue, Helvetica, sans-serif;" font-size="16.666666666666668" font-weight="normal" font-style="normal" text-decoration="none" fill="#333333" opacity="1" x="9.048" text-anchor="start" y="15.088" textLength="110.23762512207031">Front end Only</tspan></text></g></g><g width="75" height="39.667" transform="scale(1,1) translate(50,214.667)"><g stroke="#B3D7EE" stroke-opacity="1" stroke-width="1" stroke-dasharray="none" width="75" height="39.667" transform="scale(1,1) translate(0,0)" fill="none"><rect width="75" height="39.667"/></g><g width="70" height="34.666666666666664" transform="scale(1,1) translate(2.5,2.5)"><text width="70" height="15.128580093383789" transform="scale(1,1) translate(0,9.769043286641438)" xml:space="preserve"><tspan xml:space="preserve" text-rendering="optimizeSpeed" style="font-family: Arial, Helvetica Neue, Helvetica, sans-serif;" font-size="13.88888888888889" font-weight="normal" font-style="normal" text-decoration="none" fill="#333333" opacity="1" x="15.054" text-anchor="start" y="12.259" textLength="39.89105224609375">Mobile</tspan></text></g></g><g width="75" height="39.5" transform="scale(1,1) translate(133.333,214.833)"><g stroke="#B3D7EE" stroke-opacity="1" stroke-width="1" stroke-dasharray="none" width="75" height="39.5" transform="scale(1,1) translate(0,0)" fill="none"><rect width="75" height="39.5"/></g><g width="70" height="34.5" transform="scale(1,1) translate(2.5,2.5)"><text width="70" height="15.128580093383789" transform="scale(1,1) translate(0,9.685709953308105)" xml:space="preserve"><tspan xml:space="preserve" text-rendering="optimizeSpeed" style="font-family: Arial, Helvetica Neue, Helvetica, sans-serif;" font-size="13.88888888888889" font-weight="normal" font-style="normal" text-decoration="none" fill="#333333" opacity="1" x="21.078" text-anchor="start" y="12.259" textLength="27.84372901916504">Web</tspan></text></g></g><g width="33.333" height="32.167" transform="scale(1,1) translate(87.5,182.5)"><g transform="scale(1,1) translate(0,0)" fill="#545454" stroke="#545454" stroke-opacity="1"><path d="M 7.196 25.223 L 26.137 6.944" fill="none" stroke-width="1" stroke-dasharray="none"/><g><g stroke-dasharray="none"><path d="M10.668,28.821L0,32.167L3.724,21.625z" stroke="none" fill-opacity="1"/></g><g stroke-dasharray="none"><path d="M22.665,3.346L33.333,0L29.609,10.542z" stroke="none" fill-opacity="1"/></g></g></g></g><g width="50" height="32.333" transform="scale(1,1) translate(120.833,182.5)"><g transform="scale(1,1) translate(0,0)" fill="#545454" stroke="#545454" stroke-opacity="1"><path d="M 8.397 5.43 L 41.603 26.903" fill="none" stroke-width="1" stroke-dasharray="none"/><g><g stroke-dasharray="none"><path d="M5.682,9.629L0,0L11.112,1.232z" stroke="none" fill-opacity="1"/></g><g stroke-dasharray="none"><path d="M44.318,22.704L50,32.333L38.888,31.101z" stroke="none" fill-opacity="1"/></g></g></g></g><g width="79.167" height="55.667" transform="scale(1,1) translate(77.667,431.167)"><g stroke="#545454" stroke-opacity="1" stroke-width="0" stroke-dasharray="none" width="79.167" height="55.667" transform="scale(1,1) translate(0,0)" fill="none"><rect width="79.167" height="55.667"/></g><g width="79.205322265625" height="55.859371185302734" transform="scale(1,1) translate(0,0)"><text width="79.205322265625" height="55.859371185302734" transform="scale(1,1) translate(0,0)" xml:space="preserve"><tspan xml:space="preserve" text-rendering="optimizeSpeed" style="font-family: Arial, Helvetica Neue, Helvetica, sans-serif;" font-size="12.5" font-weight="bold" font-style="normal" text-decoration="none" fill="#000000" opacity="1" x="0" text-anchor="start" y="11.316" textLength="79.168701171875">Body of work</tspan><tspan xml:space="preserve" text-rendering="optimizeSpeed" style="font-family: Arial, Helvetica Neue, Helvetica, sans-serif;" font-size="12.5" font-weight="bold" font-style="normal" text-decoration="none" fill="#000000" opacity="1" x="0" text-anchor="start" y="25.281" textLength="79.205322265625">that achieves</tspan><tspan xml:space="preserve" text-rendering="optimizeSpeed" style="font-family: Arial, Helvetica Neue, Helvetica, sans-serif;" font-size="12.5" font-weight="bold" font-style="normal" text-decoration="none" fill="#000000" opacity="1" x="0" text-anchor="start" y="39.246" textLength="56.976314544677734">a specific</tspan><tspan xml:space="preserve" text-rendering="optimizeSpeed" style="font-family: Arial, Helvetica Neue, Helvetica, sans-serif;" font-size="12.5" font-weight="bold" font-style="normal" text-decoration="none" fill="#000000" opacity="1" x="0" text-anchor="start" y="53.21" textLength="25.695798873901367">goal</tspan></text></g></g><g width="83.333" height="15.167" transform="scale(1,1) translate(121.667,530)"><g stroke="#545454" stroke-opacity="1" stroke-width="0" stroke-dasharray="none" width="83.333" height="15.167" transform="scale(1,1) translate(0,0)" fill="none"><rect width="83.333" height="15.167"/></g><g width="83.33333333333333" height="15.166666666666666" transform="scale(1,1) translate(0,0)"><text width="83.33333333333333" height="13.964842796325684" transform="scale(1,1) translate(0,0.6009119351704912)" xml:space="preserve"><tspan xml:space="preserve" text-rendering="optimizeSpeed" style="font-family: Arial, Helvetica Neue, Helvetica, sans-serif;" font-size="12.5" font-weight="bold" font-style="normal" text-decoration="none" fill="#000000" opacity="1" x="0" text-anchor="start" y="11.316" textLength="83.3251953125">A unit of work</tspan></text></g></g><g width="47.5" height="15.833" transform="scale(1,1) translate(474.333,530)"><g stroke="#545454" stroke-opacity="1" stroke-width="0" stroke-dasharray="none" width="47.5" height="15.833" transform="scale(1,1) translate(0,0)" fill="none"><rect width="47.5" height="15.833"/></g><g width="47.5" height="15.833333333333332" transform="scale(1,1) translate(0,0)"><text width="47.5" height="13.964842796325684" transform="scale(1,1) translate(0,0.9342452685038243)" xml:space="preserve"><tspan xml:space="preserve" text-rendering="optimizeSpeed" style="font-family: Arial, Helvetica Neue, Helvetica, sans-serif;" font-size="12.5" font-weight="bold" font-style="normal" text-decoration="none" fill="#000000" opacity="1" x="0" text-anchor="start" y="11.316" textLength="47.259521484375">Release</tspan></text></g></g><g width="75" height="39.667" transform="scale(1,1) translate(229.167,213.5)"><g stroke="#B3D7EE" stroke-opacity="1" stroke-width="1" stroke-dasharray="none" width="75" height="39.667" transform="scale(1,1) translate(0,0)" fill="none"><rect width="75" height="39.667"/></g><g width="70" height="34.666666666666664" transform="scale(1,1) translate(2.5,2.5)"><text width="70" height="15.128580093383789" transform="scale(1,1) translate(0,9.769043286641438)" xml:space="preserve"><tspan xml:space="preserve" text-rendering="optimizeSpeed" style="font-family: Arial, Helvetica Neue, Helvetica, sans-serif;" font-size="13.88888888888889" font-weight="normal" font-style="normal" text-decoration="none" fill="#333333" opacity="1" x="15.054" text-anchor="start" y="12.259" textLength="39.89105224609375">Mobile</tspan></text></g></g><g width="75.167" height="39.5" transform="scale(1,1) translate(312.5,213.667)"><g stroke="#B3D7EE" stroke-opacity="1" stroke-width="1" stroke-dasharray="none" width="75.167" height="39.5" transform="scale(1,1) translate(0,0)" fill="none"><rect width="75.167" height="39.5"/></g><g width="70.16666666666666" height="34.5" transform="scale(1,1) translate(2.5,2.5)"><text width="70.16666666666666" height="15.128580093383789" transform="scale(1,1) translate(0,9.685709953308105)" xml:space="preserve"><tspan xml:space="preserve" text-rendering="optimizeSpeed" style="font-family: Arial, Helvetica Neue, Helvetica, sans-serif;" font-size="13.88888888888889" font-weight="normal" font-style="normal" text-decoration="none" fill="#333333" opacity="1" x="21.161" text-anchor="start" y="12.259" textLength="27.84372901916504">Web</tspan></text></g></g><g width="41.667" height="32.167" transform="scale(1,1) translate(266.667,181.333)"><g transform="scale(1,1) translate(0,0)" fill="#545454" stroke="#545454" stroke-opacity="1"><path d="M 7.916 26.056 L 33.751 6.111" fill="none" stroke-width="1" stroke-dasharray="none"/><g><g stroke-dasharray="none"><path d="M10.971,30.014L0,32.167L4.86,22.098z" stroke="none" fill-opacity="1"/></g><g stroke-dasharray="none"><path d="M30.696,2.153L41.667,0L36.807,10.069z" stroke="none" fill-opacity="1"/></g></g></g></g><g width="41.75" height="32.333" transform="scale(1,1) translate(308.333,181.333)"><g transform="scale(1,1) translate(0,0)" fill="#545454" stroke="#545454" stroke-opacity="1"><path d="M 7.906 6.123 L 33.844 26.21" fill="none" stroke-width="1" stroke-dasharray="none"/><g><g stroke-dasharray="none"><path d="M4.845,10.076L0,0L10.968,2.17z" stroke="none" fill-opacity="1"/></g><g stroke-dasharray="none"><path d="M36.905,22.257L41.75,32.333L30.782,30.163z" stroke="none" fill-opacity="1"/></g></g></g></g><g width="79.833" height="16.333" transform="scale(1,1) translate(376.333,442)"><g stroke="#545454" stroke-opacity="1" stroke-width="0" stroke-dasharray="none" width="79.833" height="16.333" transform="scale(1,1) translate(0,0)" fill="none"><rect width="79.833" height="16.333"/></g><g width="79.89501953125" height="16.333333333333332" transform="scale(1,1) translate(0,0)"><text width="79.89501953125" height="13.964842796325684" transform="scale(1,1) translate(0,1.1842452685038243)" xml:space="preserve"><tspan xml:space="preserve" text-rendering="optimizeSpeed" style="font-family: Arial, Helvetica Neue, Helvetica, sans-serif;" font-size="12.5" font-weight="bold" font-style="normal" text-decoration="none" fill="#000000" opacity="1" x="0" text-anchor="start" y="11.316" textLength="79.89501953125">Project Name</tspan></text></g></g><g width="447" height="31.5" transform="scale(1,1) translate(80.667,18)"><g stroke="#545454" stroke-opacity="1" stroke-width="0" stroke-dasharray="none" width="447" height="31.5" transform="scale(1,1) translate(0,0)" fill="none"><rect width="447" height="31.5"/></g><g width="447" height="31.5" transform="scale(1,1) translate(0,0)"><text width="447" height="31.420896530151367" transform="scale(1,1) translate(0,0.039551734924316406)" xml:space="preserve"><tspan xml:space="preserve" text-rendering="optimizeSpeed" style="font-family: Arial, Helvetica Neue, Helvetica, sans-serif;" font-size="27.77777777777778" font-weight="bold" font-style="normal" text-decoration="none" fill="#0070C0" opacity="1" x="0" text-anchor="start" y="25.461" textLength="446.9787292480469">Product Releases and Clubhouse</tspan></text></g></g><g width="487.167" height="260.667" transform="scale(1,1) translate(71.667,619.667)"><g stroke="#545454" stroke-opacity="1" stroke-width="0" stroke-dasharray="none" width="487.167" height="260.667" transform="scale(1,1) translate(0,0)" fill="none"><rect width="487.167" height="260.667"/></g><g width="487.2395706176758" height="260.67707443237305" transform="scale(1,1) translate(0,0)"><text width="487.2395706176758" height="260.67707443237305" transform="scale(1,1) translate(0,0)" xml:space="preserve" style="-webkit-user-select: none; -webkit-user-drag: none;"><tspan xml:space="preserve" text-rendering="optimizeSpeed" style="font-family: Arial, Helvetica Neue, Helvetica, sans-serif;" font-size="16.666666666666668" font-weight="normal" font-style="normal" text-decoration="none" fill="#C0504D" opacity="1" x="0" text-anchor="start" y="15.088" textLength="6.486002445220947">*</tspan><tspan xml:space="preserve" text-rendering="optimizeSpeed" style="font-family: Arial, Helvetica Neue, Helvetica, sans-serif;" font-size="16.666666666666668" font-weight="normal" font-style="normal" text-decoration="none" fill="#333333" opacity="1" x="6.486" text-anchor="start" y="15.088" textLength="25.01627540588379"> An</tspan><tspan xml:space="preserve" text-rendering="optimizeSpeed" style="font-family: Arial, Helvetica Neue, Helvetica, sans-serif;" font-size="16.666666666666668" font-weight="normal" font-style="normal" text-decoration="none" fill="#C0504D" opacity="1" x="36.133" text-anchor="start" y="15.088" textLength="60.221351623535156">Iteration</tspan><tspan xml:space="preserve" text-rendering="optimizeSpeed" style="font-family: Arial, Helvetica Neue, Helvetica, sans-serif;" font-size="16.666666666666668" font-weight="normal" font-style="normal" text-decoration="none" fill="#333333" opacity="1" x="96.354" text-anchor="start" y="15.088" textLength="123.20149230957031"> is a timebox. An</tspan><tspan xml:space="preserve" text-rendering="optimizeSpeed" style="font-family: Arial, Helvetica Neue, Helvetica, sans-serif;" font-size="16.666666666666668" font-weight="normal" font-style="normal" text-decoration="none" fill="#C0504D" opacity="1" x="224.186" text-anchor="start" y="15.088" textLength="60.221351623535156">Iteration</tspan><tspan xml:space="preserve" text-rendering="optimizeSpeed" style="font-family: Arial, Helvetica Neue, Helvetica, sans-serif;" font-size="16.666666666666668" font-weight="normal" font-style="normal" text-decoration="none" fill="#333333" opacity="1" x="284.408" text-anchor="start" y="15.088" textLength="68.57096099853516"> can be a</tspan><tspan xml:space="preserve" text-rendering="optimizeSpeed" style="font-family: Arial, Helvetica Neue, Helvetica, sans-serif;" font-size="16.666666666666668" font-weight="normal" font-style="normal" text-decoration="none" fill="#333333" opacity="1" x="0" text-anchor="start" y="33.708" textLength="407.6171569824219">customer facing product release, or, an internal project.</tspan><tspan xml:space="preserve" text-rendering="optimizeSpeed" style="font-family: Arial, Helvetica Neue, Helvetica, sans-serif;" font-size="16.666666666666668" font-weight="normal" font-style="normal" text-decoration="none" fill="#333333" opacity="1" x="0" text-anchor="start" y="52.327" textLength="425.1952819824219">At a Company, as we learn from and improve process, an</tspan><tspan xml:space="preserve" text-rendering="optimizeSpeed" style="font-family: Arial, Helvetica Neue, Helvetica, sans-serif;" font-size="16.666666666666668" font-weight="normal" font-style="normal" text-decoration="none" fill="#C0504D" opacity="1" x="0" text-anchor="start" y="70.947" textLength="60.221351623535156">Iteration</tspan><tspan xml:space="preserve" text-rendering="optimizeSpeed" style="font-family: Arial, Helvetica Neue, Helvetica, sans-serif;" font-size="16.666666666666668" font-weight="normal" font-style="normal" text-decoration="none" fill="#333333" opacity="1" x="60.221" text-anchor="start" y="70.947" textLength="359.423828125"> is how we track a given customer facing product</tspan><tspan xml:space="preserve" text-rendering="optimizeSpeed" style="font-family: Arial, Helvetica Neue, Helvetica, sans-serif;" font-size="16.666666666666668" font-weight="normal" font-style="normal" text-decoration="none" fill="#333333" opacity="1" x="0" text-anchor="start" y="89.567" textLength="59.293617248535156">release.</tspan><tspan xml:space="preserve" text-rendering="optimizeSpeed" style="font-family: Arial, Helvetica Neue, Helvetica, sans-serif;" font-size="16.666666666666668" font-weight="normal" font-style="normal" text-decoration="none" fill="#333333" opacity="1" x="0" text-anchor="start" y="108.187" textLength="416.3085632324219">As of now, since team is very small, a timebox hasn't yet</tspan><tspan xml:space="preserve" text-rendering="optimizeSpeed" style="font-family: Arial, Helvetica Neue, Helvetica, sans-serif;" font-size="16.666666666666668" font-weight="normal" font-style="normal" text-decoration="none" fill="#333333" opacity="1" x="0" text-anchor="start" y="126.807" textLength="101.01725006103516">been defined.</tspan><tspan xml:space="preserve" text-rendering="optimizeSpeed" style="font-family: Arial, Helvetica Neue, Helvetica, sans-serif;" font-size="16.666666666666668" font-weight="normal" font-style="normal" text-decoration="none" fill="#FF0000" opacity="1" x="0" text-anchor="start" y="164.046" textLength="12.972004890441895">**</tspan><tspan xml:space="preserve" text-rendering="optimizeSpeed" style="font-family: Arial, Helvetica Neue, Helvetica, sans-serif;" font-size="16.666666666666668" font-weight="normal" font-style="normal" text-decoration="none" fill="#333333" opacity="1" x="12.972" text-anchor="start" y="164.046" textLength="15.747069358825684"> A</tspan><tspan xml:space="preserve" text-rendering="optimizeSpeed" style="font-family: Arial, Helvetica Neue, Helvetica, sans-serif;" font-size="16.666666666666668" font-weight="normal" font-style="normal" text-decoration="none" fill="#FF0000" opacity="1" x="33.35" text-anchor="start" y="164.046" textLength="51.871742248535156">Project</tspan><tspan xml:space="preserve" text-rendering="optimizeSpeed" style="font-family: Arial, Helvetica Neue, Helvetica, sans-serif;" font-size="16.666666666666668" font-weight="normal" font-style="normal" text-decoration="none" fill="#333333" opacity="1" x="85.221" text-anchor="start" y="164.046" textLength="371.4518127441406"> is how Clubhouse.IO organizes Stories. Normally,</tspan><tspan xml:space="preserve" text-rendering="optimizeSpeed" style="font-family: Arial, Helvetica Neue, Helvetica, sans-serif;" font-size="16.666666666666668" font-weight="normal" font-style="normal" text-decoration="none" fill="#333333" opacity="1" x="0" text-anchor="start" y="182.666" textLength="9.269205093383789">a</tspan><tspan xml:space="preserve" text-rendering="optimizeSpeed" style="font-family: Arial, Helvetica Neue, Helvetica, sans-serif;" font-size="16.666666666666668" font-weight="normal" font-style="normal" text-decoration="none" fill="#FF0000" opacity="1" x="13.9" text-anchor="start" y="182.666" textLength="51.871742248535156">Project</tspan><tspan xml:space="preserve" text-rendering="optimizeSpeed" style="font-family: Arial, Helvetica Neue, Helvetica, sans-serif;" font-size="16.666666666666668" font-weight="normal" font-style="normal" text-decoration="none" fill="#333333" opacity="1" x="65.771" text-anchor="start" y="182.666" textLength="149.1455078125"> is associated with a</tspan><tspan xml:space="preserve" text-rendering="optimizeSpeed" style="font-family: Arial, Helvetica Neue, Helvetica, sans-serif;" font-size="16.666666666666668" font-weight="bold" font-style="normal" text-decoration="none" fill="#333333" opacity="1" x="219.548" text-anchor="start" y="182.666" textLength="108.39029693603516">Micro Service</tspan><tspan xml:space="preserve" text-rendering="optimizeSpeed" style="font-family: Arial, Helvetica Neue, Helvetica, sans-serif;" font-size="16.666666666666668" font-weight="normal" font-style="normal" text-decoration="none" fill="#333333" opacity="1" x="327.938" text-anchor="start" y="182.666" textLength="123.93391418457031"> (e.g. "Backend",</tspan><tspan xml:space="preserve" text-rendering="optimizeSpeed" style="font-family: Arial, Helvetica Neue, Helvetica, sans-serif;" font-size="16.666666666666668" font-weight="normal" font-style="normal" text-decoration="none" fill="#333333" opacity="1" x="0" text-anchor="start" y="201.286" textLength="148.9339141845703">or "Frontend" etc), a</tspan><tspan xml:space="preserve" text-rendering="optimizeSpeed" style="font-family: Arial, Helvetica Neue, Helvetica, sans-serif;" font-size="16.666666666666668" font-weight="bold" font-style="normal" text-decoration="none" fill="#333333" opacity="1" x="153.564" text-anchor="start" y="201.286" textLength="62.963863372802734">Product</tspan><tspan xml:space="preserve" text-rendering="optimizeSpeed" style="font-family: Arial, Helvetica Neue, Helvetica, sans-serif;" font-size="16.666666666666668" font-weight="normal" font-style="normal" text-decoration="none" fill="#333333" opacity="1" x="216.528" text-anchor="start" y="201.286" textLength="222.3225860595703"> (iOS App, or Android App), or</tspan><tspan xml:space="preserve" text-rendering="optimizeSpeed" style="font-family: Arial, Helvetica Neue, Helvetica, sans-serif;" font-size="16.666666666666668" font-weight="normal" font-style="normal" text-decoration="none" fill="#333333" opacity="1" x="0" text-anchor="start" y="219.906" textLength="18.538410186767578">an</tspan><tspan xml:space="preserve" text-rendering="optimizeSpeed" style="font-family: Arial, Helvetica Neue, Helvetica, sans-serif;" font-size="16.666666666666668" font-weight="bold" font-style="normal" text-decoration="none" fill="#333333" opacity="1" x="23.169" text-anchor="start" y="219.906" textLength="92.61067199707031">Department</tspan><tspan xml:space="preserve" text-rendering="optimizeSpeed" style="font-family: Arial, Helvetica Neue, Helvetica, sans-serif;" font-size="16.666666666666668" font-weight="normal" font-style="normal" text-decoration="none" fill="#333333" opacity="1" x="115.78" text-anchor="start" y="219.906" textLength="235.79100036621094"> (e.g. "DevOps", "Support" etc.).</tspan><tspan xml:space="preserve" text-rendering="optimizeSpeed" style="font-family: Arial, Helvetica Neue, Helvetica, sans-serif;" font-size="16.666666666666668" font-weight="normal" font-style="normal" text-decoration="none" fill="#333333" opacity="1" x="0" text-anchor="start" y="238.525" textLength="175.9846954345703">At Worklete, for now, all</tspan><tspan xml:space="preserve" text-rendering="optimizeSpeed" style="font-family: Arial, Helvetica Neue, Helvetica, sans-serif;" font-size="16.666666666666668" font-weight="normal" font-style="italic" text-decoration="none" fill="#333333" opacity="1" x="180.615" text-anchor="start" y="238.525" textLength="96.32975006103516">ProjectName</tspan><tspan xml:space="preserve" text-rendering="optimizeSpeed" style="font-family: Arial, Helvetica Neue, Helvetica, sans-serif;" font-size="16.666666666666668" font-weight="normal" font-style="normal" text-decoration="none" fill="#333333" opacity="1" x="276.945" text-anchor="start" y="238.525" textLength="210.29458618164062"> work is managed in a single</tspan><tspan xml:space="preserve" text-rendering="optimizeSpeed" style="font-family: Arial, Helvetica Neue, Helvetica, sans-serif;" font-size="16.666666666666668" font-weight="normal" font-style="normal" text-decoration="none" fill="#FF0000" opacity="1" x="0" text-anchor="start" y="257.145" textLength="51.871742248535156">Project</tspan><tspan xml:space="preserve" text-rendering="optimizeSpeed" style="font-family: Arial, Helvetica Neue, Helvetica, sans-serif;" font-size="16.666666666666668" font-weight="normal" font-style="normal" text-decoration="none" fill="#333333" opacity="1" x="51.872" text-anchor="start" y="257.145" textLength="123.57584381103516"> named "Product</tspan><tspan xml:space="preserve" text-rendering="optimizeSpeed" style="font-family: Arial, Helvetica Neue, Helvetica, sans-serif;" font-size="16.666666666666668" font-weight="bold" font-style="normal" text-decoration="none" fill="#333333" opacity="1" x="180.078" text-anchor="start" y="257.145" textLength="56.50227737426758">Project</tspan><tspan xml:space="preserve" text-rendering="optimizeSpeed" style="font-family: Arial, Helvetica Neue, Helvetica, sans-serif;" font-size="16.666666666666668" font-weight="normal" font-style="normal" text-decoration="none" fill="#333333" opacity="1" x="236.58" text-anchor="start" y="257.145" textLength="10.546875">".</tspan></text><line visibility="visible" fill="none" stroke-width="1.0416666666666667" stroke="#000" x1="105.60709381103516" y1="37.23958206176758" x2="105.60709381103516" y2="55.85937309265137"/></g></g></g></svg>